<svg xmlns="http://www.w3.org/2000/svg" xmlns:xlink="http://www.w3.org/1999/xlink" enable-background="new 0 0 3000 2500" viewBox="0 0 3000 2500"><rect width="2929.1" height="2434.7" x="35.4" y="32.6" fill="none"/><g opacity=".18"><path fill="#4c0000" d="M1751.1,1535.5c0.1,66.6-124.6,120.8-278.5,121.1c-153.8,0.2-278.6-53.6-278.6-120.2    c-0.1-66.6,124.6-120.8,278.5-121.1C1626.3,1415,1751,1468.9,1751.1,1535.5z" opacity="0"/><path fill="#4a0101" d="M1743.9,1535.5c0,64.9-121.4,117.7-271.3,117.9c-149.9,0.2-271.4-52.2-271.5-117.1    c0-64.9,121.4-117.7,271.3-117.9C1622.3,1418.1,1743.8,1470.6,1743.9,1535.5z" opacity=".038"/><path fill="#480202" d="M1736.7,1535.5c0,63.2-118.2,114.6-264.1,114.8c-145.9,0.2-264.2-50.8-264.3-114.1    c0-63.2,118.2-114.6,264.1-114.8S1736.7,1472.3,1736.7,1535.5z" opacity=".077"/><path fill="#460303" d="M1729.5,1535.5c0,61.5-115,111.5-256.9,111.7s-257.1-49.5-257.1-111c0-61.5,115-111.5,256.9-111.7    C1614.4,1424.4,1729.5,1474.1,1729.5,1535.5z" opacity=".115"/><path fill="#440404" d="M1722.4,1535.5c0,59.8-111.8,108.4-249.8,108.6s-249.9-48.1-249.9-107.9c0-59.8,111.8-108.4,249.8-108.6    C1610.4,1427.5,1722.3,1475.8,1722.4,1535.5z" opacity=".154"/><path fill="#420505" d="M1715.2,1535.6c0,58.1-108.6,105.3-242.6,105.5c-134,0.2-242.7-46.7-242.7-104.8    c0-58.1,108.6-105.3,242.6-105.5C1606.5,1430.6,1715.1,1477.5,1715.2,1535.6z" opacity=".192"/><path fill="#400606" d="M1708,1535.6c0,56.3-105.4,102.2-235.4,102.4c-130.1,0.2-235.5-45.3-235.6-101.7    c0-56.3,105.4-102.2,235.4-102.4C1602.5,1433.7,1708,1479.2,1708,1535.6z" opacity=".231"/><path fill="#3e0606" d="M1700.8,1535.6c0,54.6-102.1,99-228.2,99.2s-228.4-43.9-228.4-98.6c0-54.6,102.1-99,228.2-99.2    C1598.5,1436.8,1700.8,1481,1700.8,1535.6z" opacity=".269"/><path fill="#3c0707" d="M1693.7,1535.6c0,52.9-98.9,95.9-221.1,96.1c-122.1,0.2-221.2-42.6-221.2-95.5c0-52.9,98.9-95.9,221.1-96.1    C1594.6,1439.9,1693.6,1482.7,1693.7,1535.6z" opacity=".308"/><path fill="#3a0808" d="M1686.5,1535.6c0,51.2-95.7,92.8-213.9,93c-118.2,0.2-214-41.2-214-92.4c0-51.2,95.7-92.8,213.9-93    C1590.6,1443.1,1686.4,1484.4,1686.5,1535.6z" opacity=".346"/><path fill="#380909" d="M1679.3,1535.6c0,49.5-92.5,89.7-206.7,89.9c-114.2,0.2-206.8-39.8-206.9-89.3c0-49.5,92.5-89.7,206.7-89.9    C1586.6,1446.2,1679.3,1486.1,1679.3,1535.6z" opacity=".385"/><path fill="#360a0a" d="M1672.1,1535.6c0,47.8-89.3,86.6-199.6,86.8c-110.2,0.2-199.6-38.4-199.7-86.2c0-47.8,89.3-86.6,199.6-86.8    C1582.7,1449.3,1672.1,1487.9,1672.1,1535.6z" opacity=".423"/><path fill="#340b0b" d="M1665,1535.6c0,46-86.1,83.5-192.4,83.6c-106.3,0.2-192.5-37-192.5-83.1c0-46,86.1-83.5,192.4-83.6    C1578.7,1452.4,1664.9,1489.6,1665,1535.6z" opacity=".462"/><path fill="#330c0c" d="M1657.8,1535.6c0,44.3-82.9,80.4-185.2,80.5c-102.3,0.1-185.3-35.7-185.3-80c0-44.3,82.9-80.4,185.2-80.5    C1574.8,1455.5,1657.7,1491.3,1657.8,1535.6z" opacity=".5"/><path fill="#310d0d" d="M1650.6,1535.7c0,42.6-79.7,77.3-178,77.4c-98.4,0.1-178.1-34.3-178.2-76.9s79.7-77.3,178-77.4    C1570.8,1458.6,1650.6,1493,1650.6,1535.7z" opacity=".538"/><path fill="#2f0e0e" d="M1643.4,1535.7c0,40.9-76.5,74.1-170.9,74.3c-94.4,0.1-170.9-32.9-171-73.8c0-40.9,76.5-74.1,170.9-74.3    C1566.8,1461.7,1643.4,1494.8,1643.4,1535.7z" opacity=".577"/><path fill="#2d0f0f" d="M1636.2,1535.7c0,39.2-73.3,71-163.7,71.2c-90.4,0.1-163.8-31.5-163.8-70.7c0-39.2,73.3-71,163.7-71.2    C1562.9,1464.9,1636.2,1496.5,1636.2,1535.7z" opacity=".615"/><path fill="#2b1010" d="M1629.1,1535.7c0,37.5-70,67.9-156.5,68c-86.5,0.1-156.6-30.1-156.6-67.6c0-37.5,70-67.9,156.5-68    C1558.9,1468,1629,1498.2,1629.1,1535.7z" opacity=".654"/><path fill="#291111" d="M1621.9,1535.7c0,35.7-66.8,64.8-149.3,64.9s-149.4-28.8-149.4-64.5c0-35.7,66.8-64.8,149.3-64.9    C1555,1471.1,1621.9,1500,1621.9,1535.7z" opacity=".692"/><path fill="#271212" d="M1614.7,1535.7c0,34-63.6,61.7-142.2,61.8c-78.5,0.1-142.2-27.4-142.3-61.4c0-34,63.6-61.7,142.2-61.8    C1551,1474.2,1614.7,1501.7,1614.7,1535.7z" opacity=".731"/><path fill="#251212" d="M1607.5,1535.7c0,32.3-60.4,58.6-135,58.7c-74.6,0.1-135.1-26-135.1-58.3s60.4-58.6,135-58.7    C1547,1477.3,1607.5,1503.4,1607.5,1535.7z" opacity=".769"/><path fill="#231313" d="M1600.4,1535.7c0,30.6-57.2,55.5-127.8,55.6c-70.6,0.1-127.9-24.6-127.9-55.2c0-30.6,57.2-55.5,127.8-55.6    C1543.1,1480.4,1600.4,1505.1,1600.4,1535.7z" opacity=".808"/><path fill="#211414" d="M1593.2,1535.7c0,28.9-54,52.4-120.7,52.5c-66.7,0.1-120.7-23.2-120.7-52.1c0-28.9,54-52.4,120.7-52.5    C1539.1,1483.5,1593.2,1506.9,1593.2,1535.7z" opacity=".846"/><path fill="#1f1515" d="M1586,1535.7c0,27.2-50.8,49.2-113.5,49.3c-62.7,0.1-113.5-21.8-113.6-49c0-27.2,50.8-49.2,113.5-49.3    S1586,1508.6,1586,1535.7z" opacity=".885"/><path fill="#1d1616" d="M1578.8,1535.8c0,25.4-47.6,46.1-106.3,46.2c-58.7,0.1-106.4-20.5-106.4-45.9c0-25.4,47.6-46.1,106.3-46.2    C1531.2,1489.8,1578.8,1510.3,1578.8,1535.8z" opacity=".923"/><path fill="#1b1717" d="M1571.7,1535.8c0,23.7-44.4,43-99.1,43.1c-54.8,0.1-99.2-19.1-99.2-42.8c0-23.7,44.4-43,99.1-43.1    C1527.2,1492.9,1571.7,1512,1571.7,1535.8z" opacity=".962"/><path fill="#191818" d="M1564.5,1535.8c0,22-41.2,39.9-92,40c-50.8,0.1-92-17.7-92-39.7c0-22,41.2-39.9,92-40    C1523.3,1496,1564.5,1513.8,1564.5,1535.8z"/></g><linearGradient id="a" x1="1683.634" x2="1411.246" y1="1173.082" y2="760.532" gradientUnits="userSpaceOnUse"><stop offset="0" stop-color="#92b8dd"/><stop offset="1" stop-color="#3a89c3"/></linearGradient><polygon fill="url(#a)" points="1867.1 556.4 1186 162.6 1186 1313.8 2047.2 1811.3 2047.2 915.1"/><linearGradient id="b" x1="1501.413" x2="1580.749" y1="522.375" y2="1503.503" gradientUnits="userSpaceOnUse"><stop offset="0" stop-color="#92b8dd"/><stop offset="1" stop-color="#3a89c3"/></linearGradient><polygon fill="url(#b)" points="1802.7 592.7 1121.6 198.9 1121.6 1350.1 1982.8 1847.6 1982.8 951.4"/><linearGradient id="c" x1="1480.717" x2="1588.9" y1="1620.328" y2="716.992" gradientUnits="userSpaceOnUse"><stop offset="0" stop-color="#e7e7e7"/><stop offset="1" stop-color="#f7f9f8"/></linearGradient><polygon fill="url(#c)" points="1169.2 1322.6 1169.2 281.4 1767.5 627.4 1935.2 963.7 1935.2 1765.1"/><linearGradient id="d" x1="2084.099" x2="1938.649" y1="1789.611" y2="930.132" gradientUnits="userSpaceOnUse"><stop offset="0" stop-color="#92b8dd"/><stop offset="1" stop-color="#3a89c3"/></linearGradient><polygon fill="url(#d)" points="2047.2 915.1 1982.8 951.4 1982.8 1847.6 2047.2 1811.3"/><linearGradient id="e" x1="1928.765" x2="1122.179" y1="524.379" y2="251.99" gradientUnits="userSpaceOnUse"><stop offset="0" stop-color="#92b8dd"/><stop offset="1" stop-color="#3a89c3"/></linearGradient><polygon fill="url(#e)" points="1802.7 592.7 1867.1 556.4 1186 162.6 1121.6 198.9"/><linearGradient id="f" x1="1862.433" x2="1803.542" y1="985.995" y2="662.092" gradientUnits="userSpaceOnUse"><stop offset="0" stop-color="#afafaf"/><stop offset="1" stop-color="#e7e7e7"/></linearGradient><polygon fill="url(#f)" points="1766.1 623 1766.1 878.9 1935.2 963.7"/><line x1="1257.3" x2="1719.4" y1="517.8" y2="785" fill="none" stroke="#dbdbdb" stroke-linecap="round" stroke-linejoin="round" stroke-miterlimit="10" stroke-width="14.783"/><line x1="1257.3" x2="1719.4" y1="603.8" y2="871" fill="none" stroke="#dbdbdb" stroke-linecap="round" stroke-linejoin="round" stroke-miterlimit="10" stroke-width="14.783"/><line x1="1257.3" x2="1865.7" y1="689.7" y2="1042.9" fill="none" stroke="#dbdbdb" stroke-linecap="round" stroke-linejoin="round" stroke-miterlimit="10" stroke-width="14.783"/><line x1="1257.3" x2="1865.7" y1="775.7" y2="1128.8" fill="none" stroke="#dbdbdb" stroke-linecap="round" stroke-linejoin="round" stroke-miterlimit="10" stroke-width="14.783"/><line x1="1257.3" x2="1865.7" y1="861.7" y2="1214.8" fill="none" stroke="#dbdbdb" stroke-linecap="round" stroke-linejoin="round" stroke-miterlimit="10" stroke-width="14.783"/><line x1="1257.3" x2="1865.7" y1="947.6" y2="1300.7" fill="none" stroke="#dbdbdb" stroke-linecap="round" stroke-linejoin="round" stroke-miterlimit="10" stroke-width="14.783"/><line x1="1257.3" x2="1865.7" y1="1033.6" y2="1386.7" fill="none" stroke="#dbdbdb" stroke-linecap="round" stroke-linejoin="round" stroke-miterlimit="10" stroke-width="14.783"/><line x1="1257.3" x2="1865.7" y1="1119.5" y2="1472.7" fill="none" stroke="#dbdbdb" stroke-linecap="round" stroke-linejoin="round" stroke-miterlimit="10" stroke-width="14.783"/><line x1="1257.3" x2="1865.7" y1="1205.5" y2="1558.6" fill="none" stroke="#dbdbdb" stroke-linecap="round" stroke-linejoin="round" stroke-miterlimit="10" stroke-width="14.783"/><g><linearGradient id="g" x1="1876.619" x2="1731.214" y1="1822.534" y2="1775.796" gradientUnits="userSpaceOnUse"><stop offset="0" stop-color="#303030"/><stop offset="1" stop-color="#727272"/></linearGradient><path fill="url(#g)" d="M1882.2,1514.9c0,0-69.5-8.7-139,217.1c-69.5,225.8-70.9,260.5-70.9,260.5s-21.7,115.8,182.4,110     S1882.2,1514.9,1882.2,1514.9z"/><linearGradient id="h" x1="2267.476" x2="1907.426" y1="1933.274" y2="1822.489" gradientUnits="userSpaceOnUse"><stop offset="0" stop-color="#303030"/><stop offset="1" stop-color="#727272"/></linearGradient><path fill="url(#h)" d="M1974.7,1476.6c0,0-140.4-6.5-141.8,184.5c-1.4,191.1-8.7,395.1-8.7,395.1s-5.8,124.5,176.6,159.2     s254.7,0,254.7,0s118.7-539.9,104.2-568.8S1974.7,1476.6,1974.7,1476.6z"/><linearGradient id="i" x1="2483.872" x2="2274.42" y1="1968.134" y2="1952.555" gradientUnits="userSpaceOnUse"><stop offset="0" stop-color="#303030"/><stop offset="1" stop-color="#727272"/></linearGradient><path fill="url(#i)" d="M2359.8,1646.6c0,0-86.8,21.7-104.2,186.7c-17.4,165-9.9,385.7-9.9,385.7s14.2,41.3,105.4,51.4     c91.2,10.1,141.8-47.8,141.8-47.8S2497.3,1668.3,2359.8,1646.6z"/><linearGradient id="j" x1="2192.948" x2="2008.898" y1="1458.544" y2="1456.586" gradientUnits="userSpaceOnUse"><stop offset="0" stop-color="#ce8074"/><stop offset="1" stop-color="#fcab92"/></linearGradient><path fill="url(#j)" d="M1953,1292.8c0,0-8,82.3-7.3,90.1c0.8,7.9,8.8,28.2,8.8,28.2s-7.8,25.1-7.8,36.6     c0,11.5,5.1,92.8,16.6,105.8c11.5,13,42.7,27.7,57.7,26.5c14.9-1.3,23.3-3.6,23.3-3.6v39c0,0,12.9,33.6,60.7,19.1     c47.8-14.5,84.6-61.4,84.6-61.4v-99.9c0,0,99.2-94,63.3-160.5C2217,1246.3,1953,1292.8,1953,1292.8z"/><linearGradient id="k" x1="1920.018" x2="2205.188" y1="1228.204" y2="1292.467" gradientUnits="userSpaceOnUse"><stop offset="0" stop-color="#303030"/><stop offset="1" stop-color="#727272"/></linearGradient><path fill="url(#k)" d="M1920.5,1228.8c1,70.6,44.3,144.7,133,154.1c88.6,9.4,101.6-15.8,101.6-15.8s-13.8,21.4,0,55     c13.8,33.6-5.3,49.7,6.1,48.9c11.5-0.8,17.7-84.8,42.5-80.2c24.8,4.6-21.6,69.5-14.1,89.4s87.8-22.9,121.4-103.9s0-147.5,0-147.5     s-8.4-124-100.9-128.1s-165.8,86-206.3,79.9C1963.3,1174.5,1919.7,1173.8,1920.5,1228.8z"/><linearGradient id="l" x1="2216.7" x2="2129.347" y1="1634.941" y2="1634.011" gradientUnits="userSpaceOnUse"><stop offset="0" stop-color="#e7e7e7"/><stop offset="1" stop-color="#f7f9f8"/></linearGradient><polygon fill="url(#l)" points="2198.5 1535.9 2098.9 1643.2 2133.5 1732.9 2248.8 1587.6"/><linearGradient id="m" x1="2021.83" x2="1951.094" y1="1595.842" y2="1595.09" gradientUnits="userSpaceOnUse"><stop offset="0" stop-color="#e7e7e7"/><stop offset="1" stop-color="#f7f9f8"/></linearGradient><path fill="url(#m)" d="M1959.7,1551.8l-33.7,86.4l121.2-19.6v-42.1C2047.2,1576.5,1996.9,1588,1959.7,1551.8z"/><linearGradient id="n" x1="2061.193" x2="1932.123" y1="1918.045" y2="1916.672" gradientUnits="userSpaceOnUse"><stop offset="0" stop-color="#b92222"/><stop offset=".247" stop-color="#dd2f2f"/><stop offset=".855" stop-color="#ff6757"/></linearGradient><path fill="url(#n)" d="M2041.6,1618.6l57.2,24.6l11.6,30.2l-17.9,8.4l-84.9,535c0,0-79-10.1-123.2-49.2l128.7-520.9l-15.8-20.9     L2041.6,1618.6z"/></g><g><linearGradient id="o" x1="731.613" x2="1988.236" y1="866.302" y2="866.302" gradientUnits="userSpaceOnUse"><stop offset="0" stop-color="#ffce00"/><stop offset="1" stop-color="#fc7c08"/></linearGradient><polygon fill="url(#o)" points="760.7 469.7 966.5 918.8 1422.2 468.3 1635.4 671.1 986 1224.2 873.3 1264.3 699 491.6"/><linearGradient id="p" x1="507.073" x2="1522.775" y1="877.972" y2="877.972" gradientUnits="userSpaceOnUse"><stop offset="0" stop-color="#ffce00"/><stop offset="1" stop-color="#fc7c08"/></linearGradient><polygon fill="url(#p)" points="699 491.6 899.7 913.5 1309.6 508.4 1522.8 711.2 873.3 1264.3 507.1 674.1"/><linearGradient id="q" x1="1320.921" x2="1758.205" y1="589.762" y2="589.762" gradientUnits="userSpaceOnUse"><stop offset="0" stop-color="#ffce00"/><stop offset="1" stop-color="#fc7c08"/></linearGradient><polygon fill="url(#q)" points="1422.2 468.3 1309.6 508.4 1522.8 711.2 1635.4 671.1"/></g><g opacity=".18"><path fill="#4c0000" d="M1424,2179.1c0.1,66.6-124.6,120.8-278.5,121.1c-153.8,0.2-278.6-53.6-278.6-120.2    c-0.1-66.6,124.6-120.8,278.5-121.1C1299.2,2058.6,1423.9,2112.5,1424,2179.1z" opacity="0"/><path fill="#4a0101" d="M1416.8,2179.1c0,64.9-121.4,117.7-271.3,117.9c-149.9,0.2-271.4-52.2-271.5-117.1    c0-64.9,121.4-117.7,271.3-117.9C1295.2,2061.7,1416.8,2114.2,1416.8,2179.1z" opacity=".038"/><path fill="#480202" d="M1409.6,2179.1c0,63.2-118.2,114.6-264.1,114.8c-145.9,0.2-264.2-50.8-264.3-114.1    c0-63.2,118.2-114.6,264.1-114.8C1291.3,2064.9,1409.6,2115.9,1409.6,2179.1z" opacity=".077"/><path fill="#460303" d="M1402.4,2179.1c0,61.5-115,111.5-256.9,111.7c-141.9,0.2-257.1-49.5-257.1-111s115-111.5,256.9-111.7    C1287.3,2068,1402.4,2117.6,1402.4,2179.1z" opacity=".115"/><path fill="#440404" d="M1395.3,2179.1c0,59.8-111.8,108.4-249.8,108.6s-249.9-48.1-249.9-107.9c0-59.8,111.8-108.4,249.8-108.6    S1395.2,2119.4,1395.3,2179.1z" opacity=".154"/><path fill="#420505" d="M1388.1,2179.1c0,58.1-108.6,105.3-242.6,105.5c-134,0.2-242.7-46.7-242.7-104.8    c0-58.1,108.6-105.3,242.6-105.5C1279.4,2074.2,1388.1,2121.1,1388.1,2179.1z" opacity=".192"/><path fill="#400606" d="M1380.9,2179.2c0,56.3-105.4,102.2-235.4,102.4c-130.1,0.2-235.5-45.3-235.6-101.7    c0-56.3,105.4-102.2,235.4-102.4C1275.4,2077.3,1380.9,2122.8,1380.9,2179.2z" opacity=".231"/><path fill="#3e0606" d="M1373.7,2179.2c0,54.6-102.1,99-228.2,99.2c-126.1,0.2-228.4-43.9-228.4-98.6c0-54.6,102.1-99,228.2-99.2    C1271.5,2080.4,1373.7,2124.5,1373.7,2179.2z" opacity=".269"/><path fill="#3c0707" d="M1366.6,2179.2c0,52.9-98.9,95.9-221.1,96.1c-122.1,0.2-221.2-42.6-221.2-95.5c0-52.9,98.9-95.9,221.1-96.1    C1267.5,2083.5,1366.5,2126.3,1366.6,2179.2z" opacity=".308"/><path fill="#3a0808" d="M1359.4,2179.2c0,51.2-95.7,92.8-213.9,93c-118.2,0.2-214-41.2-214-92.4c0-51.2,95.7-92.8,213.9-93    C1263.5,2086.6,1359.4,2128,1359.4,2179.2z" opacity=".346"/><path fill="#380909" d="M1352.2,2179.2c0,49.5-92.5,89.7-206.7,89.9c-114.2,0.2-206.8-39.8-206.9-89.3c0-49.5,92.5-89.7,206.7-89.9    S1352.2,2129.7,1352.2,2179.2z" opacity=".385"/><path fill="#360a0a" d="M1345,2179.2c0,47.8-89.3,86.6-199.6,86.8c-110.2,0.2-199.6-38.4-199.7-86.2c0-47.8,89.3-86.6,199.6-86.8    C1255.6,2092.9,1345,2131.5,1345,2179.2z" opacity=".423"/><path fill="#340b0b" d="M1337.9,2179.2c0,46-86.1,83.5-192.4,83.6c-106.3,0.2-192.5-37-192.5-83.1c0-46,86.1-83.5,192.4-83.6    C1251.7,2096,1337.8,2133.2,1337.9,2179.2z" opacity=".462"/><path fill="#330c0c" d="M1330.7,2179.2c0,44.3-82.9,80.4-185.2,80.5c-102.3,0.1-185.3-35.7-185.3-80c0-44.3,82.9-80.4,185.2-80.5    C1247.7,2099.1,1330.7,2134.9,1330.7,2179.2z" opacity=".5"/><path fill="#310d0d" d="M1323.5,2179.2c0,42.6-79.7,77.3-178,77.4c-98.4,0.1-178.1-34.3-178.2-76.9c0-42.6,79.7-77.3,178-77.4    C1243.7,2102.2,1323.5,2136.6,1323.5,2179.2z" opacity=".538"/><path fill="#2f0e0e" d="M1316.3,2179.3c0,40.9-76.5,74.1-170.9,74.3c-94.4,0.1-170.9-32.9-171-73.8c0-40.9,76.5-74.1,170.9-74.3    C1239.8,2105.3,1316.3,2138.4,1316.3,2179.3z" opacity=".577"/><path fill="#2d0f0f" d="M1309.2,2179.3c0,39.2-73.3,71-163.7,71.2c-90.4,0.1-163.8-31.5-163.8-70.7c0-39.2,73.3-71,163.7-71.2    C1235.8,2108.4,1309.1,2140.1,1309.2,2179.3z" opacity=".615"/><path fill="#2b1010" d="M1302,2179.3c0,37.5-70,67.9-156.5,68c-86.5,0.1-156.6-30.1-156.6-67.6c0-37.5,70-67.9,156.5-68    C1231.8,2111.6,1302,2141.8,1302,2179.3z" opacity=".654"/><path fill="#291111" d="M1294.8,2179.3c0,35.7-66.8,64.8-149.3,64.9c-82.5,0.1-149.4-28.8-149.4-64.5c0-35.7,66.8-64.8,149.3-64.9    C1227.9,2114.7,1294.8,2143.5,1294.8,2179.3z" opacity=".692"/><path fill="#271212" d="M1287.6,2179.3c0,34-63.6,61.7-142.2,61.8c-78.5,0.1-142.2-27.4-142.3-61.4c0-34,63.6-61.7,142.2-61.8    C1223.9,2117.8,1287.6,2145.3,1287.6,2179.3z" opacity=".731"/><path fill="#251212" d="M1280.5,2179.3c0,32.3-60.4,58.6-135,58.7c-74.6,0.1-135.1-26-135.1-58.3c0-32.3,60.4-58.6,135-58.7    C1220,2120.9,1280.4,2147,1280.5,2179.3z" opacity=".769"/><path fill="#231313" d="M1273.3,2179.3c0,30.6-57.2,55.5-127.8,55.6c-70.6,0.1-127.9-24.6-127.9-55.2c0-30.6,57.2-55.5,127.8-55.6    C1216,2124,1273.3,2148.7,1273.3,2179.3z" opacity=".808"/><path fill="#211414" d="M1266.1,2179.3c0,28.9-54,52.4-120.7,52.5c-66.7,0.1-120.7-23.2-120.7-52.1c0-28.9,54-52.4,120.7-52.5    C1212,2127.1,1266.1,2150.5,1266.1,2179.3z" opacity=".846"/><path fill="#1f1515" d="M1258.9,2179.3c0,27.2-50.8,49.2-113.5,49.3c-62.7,0.1-113.5-21.8-113.6-49c0-27.2,50.8-49.2,113.5-49.3    C1208.1,2130.2,1258.9,2152.2,1258.9,2179.3z" opacity=".885"/><path fill="#1d1616" d="M1251.8,2179.3c0,25.4-47.6,46.1-106.3,46.2c-58.7,0.1-106.4-20.5-106.4-45.9s47.6-46.1,106.3-46.2    C1204.1,2133.4,1251.8,2153.9,1251.8,2179.3z" opacity=".923"/><path fill="#1b1717" d="M1244.6,2179.4c0,23.7-44.4,43-99.1,43.1c-54.8,0.1-99.2-19.1-99.2-42.8c0-23.7,44.4-43,99.1-43.1    C1200.2,2136.5,1244.6,2155.6,1244.6,2179.4z" opacity=".962"/><path fill="#191818" d="M1237.4,2179.4c0,22-41.2,39.9-92,40c-50.8,0.1-92-17.7-92-39.7c0-22,41.2-39.9,92-40    C1196.2,2139.6,1237.4,2157.4,1237.4,2179.4z"/></g><g opacity=".18"><path fill="#4c0000" d="M2144.3,2136.6c0.1,66.6-124.6,120.8-278.5,121.1c-153.8,0.2-278.6-53.6-278.6-120.2    c-0.1-66.6,124.6-120.8,278.5-121.1C2019.5,2016.1,2144.2,2070,2144.3,2136.6z" opacity="0"/><path fill="#4a0101" d="M2137.1,2136.6c0,64.9-121.4,117.7-271.3,117.9s-271.4-52.2-271.5-117.1c0-64.9,121.4-117.7,271.3-117.9    C2015.5,2019.3,2137.1,2071.7,2137.1,2136.6z" opacity=".038"/><path fill="#480202" d="M2129.9,2136.6c0,63.2-118.2,114.6-264.1,114.8c-145.9,0.2-264.2-50.8-264.3-114.1    c0-63.2,118.2-114.6,264.1-114.8C2011.6,2022.4,2129.9,2073.4,2129.9,2136.6z" opacity=".077"/><path fill="#460303" d="M2122.8,2136.6c0,61.5-115,111.5-256.9,111.7s-257.1-49.5-257.1-111c0-61.5,115-111.5,256.9-111.7    C2007.6,2025.5,2122.7,2075.2,2122.8,2136.6z" opacity=".115"/><path fill="#440404" d="M2115.6,2136.7c0,59.8-111.8,108.4-249.8,108.6s-249.9-48.1-249.9-107.9c0-59.8,111.8-108.4,249.8-108.6    C2003.6,2028.6,2115.5,2076.9,2115.6,2136.7z" opacity=".154"/><path fill="#420505" d="M2108.4,2136.7c0,58.1-108.6,105.3-242.6,105.5s-242.7-46.7-242.7-104.8c0-58.1,108.6-105.3,242.6-105.5    C1999.7,2031.7,2108.4,2078.6,2108.4,2136.7z" opacity=".192"/><path fill="#400606" d="M2101.2,2136.7c0,56.3-105.4,102.2-235.4,102.4s-235.5-45.3-235.6-101.7c0-56.3,105.4-102.2,235.4-102.4    C1995.7,2034.8,2101.2,2080.3,2101.2,2136.7z" opacity=".231"/><path fill="#3e0606" d="M2094.1,2136.7c0,54.6-102.1,99-228.2,99.2s-228.4-43.9-228.4-98.6c0-54.6,102.1-99,228.2-99.2    C1991.8,2037.9,2094,2082.1,2094.1,2136.7z" opacity=".269"/><path fill="#3c0707" d="M2086.9,2136.7c0,52.9-98.9,95.9-221.1,96.1c-122.1,0.2-221.2-42.6-221.2-95.5s98.9-95.9,221.1-96.1    C1987.8,2041,2086.8,2083.8,2086.9,2136.7z" opacity=".308"/><path fill="#3a0808" d="M2079.7,2136.7c0,51.2-95.7,92.8-213.9,93s-214-41.2-214-92.4c0-51.2,95.7-92.8,213.9-93    C1983.8,2044.2,2079.7,2085.5,2079.7,2136.7z" opacity=".346"/><path fill="#380909" d="M2072.5,2136.7c0,49.5-92.5,89.7-206.7,89.9s-206.8-39.8-206.9-89.3c0-49.5,92.5-89.7,206.7-89.9    C1979.9,2047.3,2072.5,2087.2,2072.5,2136.7z" opacity=".385"/><path fill="#360a0a" d="M2065.4,2136.7c0,47.8-89.3,86.6-199.6,86.8c-110.2,0.2-199.6-38.4-199.7-86.2c0-47.8,89.3-86.6,199.6-86.8    C1975.9,2050.4,2065.3,2089,2065.4,2136.7z" opacity=".423"/><path fill="#340b0b" d="M2058.2,2136.7c0,46-86.1,83.5-192.4,83.6c-106.3,0.2-192.5-37-192.5-83.1c0-46,86.1-83.5,192.4-83.6    C1972,2053.5,2058.1,2090.7,2058.2,2136.7z" opacity=".462"/><path fill="#330c0c" d="M2051,2136.7c0,44.3-82.9,80.4-185.2,80.5c-102.3,0.1-185.3-35.7-185.3-80c0-44.3,82.9-80.4,185.2-80.5    C1968,2056.6,2051,2092.4,2051,2136.7z" opacity=".5"/><path fill="#310d0d" d="M2043.8,2136.8c0,42.6-79.7,77.3-178,77.4c-98.4,0.1-178.1-34.3-178.2-76.9c0-42.6,79.7-77.3,178-77.4    C1964,2059.7,2043.8,2094.2,2043.8,2136.8z" opacity=".538"/><path fill="#2f0e0e" d="M2036.7,2136.8c0,40.9-76.5,74.1-170.9,74.3s-170.9-32.9-171-73.8c0-40.9,76.5-74.1,170.9-74.3    C1960.1,2062.8,2036.6,2095.9,2036.7,2136.8z" opacity=".577"/><path fill="#2d0f0f" d="M2029.5,2136.8c0,39.2-73.3,71-163.7,71.2s-163.8-31.5-163.8-70.7c0-39.2,73.3-71,163.7-71.2    C1956.1,2066,2029.4,2097.6,2029.5,2136.8z" opacity=".615"/><path fill="#2b1010" d="M2022.3,2136.8c0,37.5-70,67.9-156.5,68c-86.5,0.1-156.6-30.1-156.6-67.6c0-37.5,70-67.9,156.5-68    C1952.2,2069.1,2022.3,2099.3,2022.3,2136.8z" opacity=".654"/><path fill="#291111" d="M2015.1,2136.8c0,35.7-66.8,64.8-149.3,64.9c-82.5,0.1-149.4-28.8-149.4-64.5c0-35.7,66.8-64.8,149.3-64.9    C1948.2,2072.2,2015.1,2101.1,2015.1,2136.8z" opacity=".692"/><path fill="#271212" d="M2007.9,2136.8c0,34-63.6,61.7-142.2,61.8s-142.2-27.4-142.3-61.4c0-34,63.6-61.7,142.2-61.8    C1944.2,2075.3,2007.9,2102.8,2007.9,2136.8z" opacity=".731"/><path fill="#251212" d="M2000.8,2136.8c0,32.3-60.4,58.6-135,58.7c-74.6,0.1-135.1-26-135.1-58.3c0-32.3,60.4-58.6,135-58.7    C1940.3,2078.4,2000.7,2104.5,2000.8,2136.8z" opacity=".769"/><path fill="#231313" d="M1993.6,2136.8c0,30.6-57.2,55.5-127.8,55.6c-70.6,0.1-127.9-24.6-127.9-55.2s57.2-55.5,127.8-55.6    C1936.3,2081.5,1993.6,2106.2,1993.6,2136.8z" opacity=".808"/><path fill="#211414" d="M1986.4,2136.8c0,28.9-54,52.4-120.7,52.5c-66.7,0.1-120.7-23.2-120.7-52.1c0-28.9,54-52.4,120.7-52.5    C1932.3,2084.6,1986.4,2108,1986.4,2136.8z" opacity=".846"/><path fill="#1f1515" d="M1979.2,2136.9c0,27.2-50.8,49.2-113.5,49.3c-62.7,0.1-113.5-21.8-113.6-49c0-27.2,50.8-49.2,113.5-49.3    C1928.4,2087.8,1979.2,2109.7,1979.2,2136.9z" opacity=".885"/><path fill="#1d1616" d="M1972.1,2136.9c0,25.4-47.6,46.1-106.3,46.2s-106.4-20.5-106.4-45.9s47.6-46.1,106.3-46.2    S1972.1,2111.4,1972.1,2136.9z" opacity=".923"/><path fill="#1b1717" d="M1964.9,2136.9c0,23.7-44.4,43-99.1,43.1s-99.2-19.1-99.2-42.8s44.4-43,99.1-43.1    C1920.5,2094,1964.9,2113.1,1964.9,2136.9z" opacity=".962"/><path fill="#191818" d="M1957.7,2136.9c0,22-41.2,39.9-92,40c-50.8,0.1-92-17.7-92-39.7s41.2-39.9,92-40    C1916.5,2097.1,1957.7,2114.9,1957.7,2136.9z"/></g><g opacity=".18"><path fill="#4c0000" d="M2389,2216.3c0.1,66.6-124.6,120.8-278.5,121.1s-278.6-53.6-278.6-120.2s124.6-120.8,278.5-121.1    S2389,2149.7,2389,2216.3z" opacity="0"/><path fill="#4a0101" d="M2381.9,2216.3c0,64.9-121.4,117.7-271.3,117.9c-149.9,0.2-271.4-52.2-271.5-117.1    c0-64.9,121.4-117.7,271.3-117.9C2260.3,2098.9,2381.8,2151.4,2381.9,2216.3z" opacity=".038"/><path fill="#480202" d="M2374.7,2216.3c0,63.2-118.2,114.6-264.1,114.8s-264.2-50.8-264.3-114.1c0-63.2,118.2-114.6,264.1-114.8    C2256.3,2102.1,2374.6,2153.1,2374.7,2216.3z" opacity=".077"/><path fill="#460303" d="M2367.5,2216.3c0,61.5-115,111.5-256.9,111.7s-257.1-49.5-257.1-111c0-61.5,115-111.5,256.9-111.7    C2252.4,2105.2,2367.5,2154.9,2367.5,2216.3z" opacity=".115"/><path fill="#440404" d="M2360.3,2216.3c0,59.8-111.8,108.4-249.8,108.6c-138,0.2-249.9-48.1-249.9-107.9    c0-59.8,111.8-108.4,249.8-108.6C2248.4,2108.3,2360.3,2156.6,2360.3,2216.3z" opacity=".154"/><path fill="#420505" d="M2353.2,2216.4c0,58.1-108.6,105.3-242.6,105.5s-242.7-46.7-242.7-104.8c0-58.1,108.6-105.3,242.6-105.5    C2244.4,2111.4,2353.1,2158.3,2353.2,2216.4z" opacity=".192"/><path fill="#400606" d="M2346,2216.4c0,56.3-105.4,102.2-235.4,102.4c-130.1,0.2-235.5-45.3-235.6-101.7    c0-56.3,105.4-102.2,235.4-102.4C2240.5,2114.5,2345.9,2160,2346,2216.4z" opacity=".231"/><path fill="#3e0606" d="M2338.8,2216.4c0,54.6-102.1,99-228.2,99.2s-228.4-43.9-228.4-98.6c0-54.6,102.1-99,228.2-99.2    C2236.5,2117.6,2338.8,2161.8,2338.8,2216.4z" opacity=".269"/><path fill="#3c0707" d="M2331.6,2216.4c0,52.9-98.9,95.9-221.1,96.1s-221.2-42.6-221.2-95.5s98.9-95.9,221.1-96.1    C2232.6,2120.7,2331.6,2163.5,2331.6,2216.4z" opacity=".308"/><path fill="#3a0808" d="M2324.5,2216.4c0,51.2-95.7,92.8-213.9,93c-118.2,0.2-214-41.2-214-92.4c0-51.2,95.7-92.8,213.9-93    C2228.6,2123.9,2324.4,2165.2,2324.5,2216.4z" opacity=".346"/><path fill="#380909" d="M2317.3,2216.4c0,49.5-92.5,89.7-206.7,89.9s-206.8-39.8-206.9-89.3c0-49.5,92.5-89.7,206.7-89.9    C2224.6,2127,2317.3,2166.9,2317.3,2216.4z" opacity=".385"/><path fill="#360a0a" d="M2310.1,2216.4c0,47.8-89.3,86.6-199.6,86.8c-110.2,0.2-199.6-38.4-199.7-86.2c0-47.8,89.3-86.6,199.6-86.8    C2220.7,2130.1,2310.1,2168.7,2310.1,2216.4z" opacity=".423"/><path fill="#340b0b" d="M2302.9,2216.4c0,46-86.1,83.5-192.4,83.6c-106.3,0.2-192.5-37-192.5-83.1c0-46,86.1-83.5,192.4-83.6    C2216.7,2133.2,2302.9,2170.4,2302.9,2216.4z" opacity=".462"/><path fill="#330c0c" d="M2295.8,2216.4c0,44.3-82.9,80.4-185.2,80.5c-102.3,0.1-185.3-35.7-185.3-80c0-44.3,82.9-80.4,185.2-80.5    C2212.8,2136.3,2295.7,2172.1,2295.8,2216.4z" opacity=".5"/><path fill="#310d0d" d="M2288.6,2216.5c0,42.6-79.7,77.3-178,77.4c-98.4,0.1-178.1-34.3-178.2-76.9c0-42.6,79.7-77.3,178-77.4    C2208.8,2139.4,2288.6,2173.8,2288.6,2216.5z" opacity=".538"/><path fill="#2f0e0e" d="M2281.4,2216.5c0,40.9-76.5,74.1-170.9,74.3c-94.4,0.1-170.9-32.9-171-73.8c0-40.9,76.5-74.1,170.9-74.3    C2204.8,2142.5,2281.4,2175.6,2281.4,2216.5z" opacity=".577"/><path fill="#2d0f0f" d="M2274.2,2216.5c0,39.2-73.3,71-163.7,71.2c-90.4,0.1-163.8-31.5-163.8-70.7c0-39.2,73.3-71,163.7-71.2    C2200.9,2145.7,2274.2,2177.3,2274.2,2216.5z" opacity=".615"/><path fill="#2b1010" d="M2267.1,2216.5c0,37.5-70,67.9-156.5,68c-86.5,0.1-156.6-30.1-156.6-67.6s70-67.9,156.5-68    C2196.9,2148.8,2267,2179,2267.1,2216.5z" opacity=".654"/><path fill="#291111" d="M2259.9,2216.5c0,35.7-66.8,64.8-149.3,64.9c-82.5,0.1-149.4-28.8-149.4-64.5c0-35.7,66.8-64.8,149.3-64.9    S2259.9,2180.8,2259.9,2216.5z" opacity=".692"/><path fill="#271212" d="M2252.7,2216.5c0,34-63.6,61.7-142.2,61.8c-78.5,0.1-142.2-27.4-142.3-61.4c0-34,63.6-61.7,142.2-61.8    C2189,2155,2252.7,2182.5,2252.7,2216.5z" opacity=".731"/><path fill="#251212" d="M2245.5,2216.5c0,32.3-60.4,58.6-135,58.7c-74.6,0.1-135.1-26-135.1-58.3c0-32.3,60.4-58.6,135-58.7    C2185,2158.1,2245.5,2184.2,2245.5,2216.5z" opacity=".769"/><path fill="#231313" d="M2238.4,2216.5c0,30.6-57.2,55.5-127.8,55.6c-70.6,0.1-127.9-24.6-127.9-55.2c0-30.6,57.2-55.5,127.8-55.6    C2181.1,2161.2,2238.3,2185.9,2238.4,2216.5z" opacity=".808"/><path fill="#211414" d="M2231.2,2216.5c0,28.9-54,52.4-120.7,52.5c-66.7,0.1-120.7-23.2-120.7-52.1s54-52.4,120.7-52.5    C2177.1,2164.3,2231.2,2187.7,2231.2,2216.5z" opacity=".846"/><path fill="#1f1515" d="M2224,2216.5c0,27.2-50.8,49.2-113.5,49.3s-113.5-21.8-113.6-49c0-27.2,50.8-49.2,113.5-49.3    C2173.1,2167.4,2224,2189.4,2224,2216.5z" opacity=".885"/><path fill="#1d1616" d="M2216.8,2216.6c0,25.4-47.6,46.1-106.3,46.2c-58.7,0.1-106.4-20.5-106.4-45.9s47.6-46.1,106.3-46.2    S2216.8,2191.1,2216.8,2216.6z" opacity=".923"/><path fill="#1b1717" d="M2209.7,2216.6c0,23.7-44.4,43-99.1,43.1s-99.2-19.1-99.2-42.8c0-23.7,44.4-43,99.1-43.1    C2165.2,2173.7,2209.6,2192.8,2209.7,2216.6z" opacity=".962"/><path fill="#191818" d="M2202.5,2216.6c0,22-41.2,39.9-92,40s-92-17.7-92-39.7c0-22,41.2-39.9,92-40S2202.5,2194.6,2202.5,2216.6z"/></g><g><path fill="#828282" d="M1456.3,1811c0.1-4,0.1-7.9,0.2-11.8c0-0.3,0-0.5,0-0.8c0-0.1,0-0.3,0-0.4c0-4.2,0-8.3-0.1-12.4    c0-0.3,0-0.6,0-0.8c-0.1-4.1-0.1-8.2-0.3-12c0-0.1,0-0.2,0-0.3c0,0,0-0.1,0-0.1c-0.1-4.2-0.3-8.3-0.5-12.2c0-0.3,0-0.6,0-0.9    c-0.2-3.6-0.4-7.1-0.6-10.4c0-0.2,0-0.3,0-0.5c0-0.4-0.1-0.8-0.1-1.1c-0.1-1.1-0.1-2.1-0.2-3.2c0-0.6-0.1-1.3-0.1-1.9    c-0.1-1.1-0.2-2.1-0.2-3.1c0-0.5-0.1-1.1-0.1-1.6c-0.1-1.2-0.2-2.4-0.3-3.6c0-0.3,0-0.6-0.1-0.8c-0.1-1.4-0.2-2.8-0.4-4.1    c0-0.1,0-0.1,0-0.2c0-0.1,0-0.2,0-0.3c-0.2-2.2-0.4-4.2-0.6-6c0-0.1,0-0.2,0-0.4c-0.2-1.8-0.4-3.4-0.6-4.9c0,0,0,0,0,0    c0,0,0-0.1,0-0.1c-0.2-1.4-0.3-2.6-0.5-3.5c0-0.3-0.1-0.6-0.1-0.9c0-0.1,0-0.2,0-0.3c0-0.1,0-0.2,0-0.2c0-0.1,0-0.2,0-0.2    c0-0.2-0.1-0.4-0.1-0.6c0,0,0,0,0,0c0,0,0-0.1,0-0.1c0-0.1,0-0.2-0.1-0.3c0-0.1,0-0.1,0-0.2c0,0,0-0.1,0-0.1c0,0,0,0,0,0    c0-0.1,0-0.1-0.1-0.1c0,0,0,0,0,0l-44.2,25.7c0,0,0,0.1,0.1,0.2c0,0,0,0.1,0,0.1c0,0.1,0.1,0.3,0.1,0.5c0,0,0,0.1,0,0.1    c0,0.2,0.1,0.5,0.1,0.9c0,0.1,0,0.2,0,0.2c0.1,0.4,0.1,0.8,0.2,1.2c0,0,0,0,0,0c0.1,0.9,0.3,2.1,0.5,3.4c0,0.1,0,0.2,0,0.3    c0.2,1.4,0.4,3.1,0.6,4.9c0,0.1,0,0.2,0,0.2c0.2,1.8,0.4,3.9,0.6,6.1c0,0.2,0,0.3,0,0.5c0.1,1.3,0.2,2.6,0.4,4.1    c0,0.3,0,0.6,0.1,0.9c0.1,1.1,0.2,2.3,0.3,3.5c0,0.5,0.1,1.1,0.1,1.6c0.1,1,0.2,2.1,0.2,3.1c0,0.6,0.1,1.3,0.1,1.9    c0.1,1.1,0.1,2.1,0.2,3.2c0,0.5,0.1,1.1,0.1,1.6c0.2,3.3,0.4,6.8,0.6,10.5c0,0.3,0,0.5,0,0.8c0.2,3.9,0.3,8,0.5,12.3    c0,0.1,0,0.2,0,0.2c0.1,3.9,0.2,8,0.3,12.1c0,0.2,0,0.5,0,0.7c0.1,4,0.1,8.2,0.1,12.4c0,0.4,0,0.8,0,1.2c0,3.9-0.1,7.8-0.2,11.8    c0,0.3,0,0.6,0,0.9c-0.1,4.2-0.2,8.4-0.4,12.7c0,0.1,0,0.3,0,0.4c-0.2,3.8-0.4,7.7-0.6,11.6c0,0.4,0,0.9-0.1,1.3    c-0.2,3.8-0.5,7.7-0.8,11.6c0,0.5-0.1,1.1-0.1,1.6c-0.7,8.1-1.5,16.3-2.5,24.5c0,0.1,0,0.2,0,0.3c-1,7.9-2.2,15.8-3.5,23.8    c0,0.1-0.1,0.3-0.1,0.4c-1.3,7.7-2.8,15.3-4.6,23c-0.1,0.5-0.2,0.9-0.3,1.4c-0.7,3-1.4,5.9-2.2,8.9c-0.2,0.8-0.4,1.6-0.6,2.4    c-0.9,3.3-1.8,6.7-2.7,10c-0.2,0.6-0.3,1.1-0.5,1.6c-0.9,2.9-1.8,5.9-2.7,8.8c-0.2,0.7-0.5,1.5-0.7,2.2c-1.1,3.3-2.2,6.5-3.4,9.8    c-0.2,0.6-0.4,1.1-0.7,1.7c-1.2,3.3-2.5,6.5-3.9,9.7c-0.2,0.4-0.3,0.8-0.5,1.3c-1.4,3.4-2.9,6.7-4.5,10c-0.3,0.6-0.6,1.3-0.9,1.9    c-1.9,3.8-3.8,7.6-5.8,11.3c-0.3,0.6-0.6,1.1-0.9,1.7c-2.1,3.7-4.2,7.3-6.5,10.9c-0.4,0.7-0.9,1.4-1.3,2c-1.2,1.8-2.4,3.6-3.7,5.4    c-0.5,0.7-1,1.4-1.5,2.1c-1.7,2.4-3.5,4.8-5.3,7.1c-0.1,0.2-0.3,0.3-0.4,0.5c-1.7,2.1-3.5,4.2-5.3,6.3c-0.6,0.7-1.2,1.3-1.8,2    c-1.5,1.6-2.9,3.2-4.5,4.7c-0.6,0.6-1.2,1.2-1.8,1.8c-2.1,2.1-4.2,4.1-6.4,6c-0.1,0.1-0.2,0.2-0.3,0.2c-2.1,1.9-4.3,3.6-6.5,5.4    c-0.7,0.5-1.4,1.1-2.1,1.6c-1.7,1.3-3.5,2.6-5.3,3.8c-0.7,0.5-1.4,1-2.2,1.5c-2.5,1.6-5,3.2-7.6,4.8l44.2-25.7    c2.6-1.5,5.1-3.1,7.6-4.8c0.7-0.5,1.5-1,2.2-1.5c1.8-1.2,3.6-2.5,5.3-3.8c0.7-0.5,1.4-1.1,2.1-1.6c2.2-1.7,4.4-3.5,6.5-5.4    c0.1-0.1,0.2-0.2,0.3-0.2c2.2-1.9,4.3-4,6.4-6c0.6-0.6,1.2-1.2,1.8-1.8c1.5-1.5,3-3.1,4.5-4.7c0.6-0.7,1.2-1.3,1.8-2    c1.8-2,3.6-4.1,5.3-6.2c0.1-0.2,0.3-0.3,0.4-0.5c1.8-2.3,3.6-4.7,5.3-7c0.5-0.7,1-1.4,1.5-2.1c1.3-1.8,2.5-3.6,3.7-5.4    c0.3-0.4,0.6-0.9,0.9-1.3c0.1-0.2,0.3-0.5,0.4-0.7c2.3-3.5,4.4-7.2,6.5-10.9c0.3-0.6,0.6-1.1,0.9-1.7c2-3.7,4-7.5,5.8-11.3    c0.1-0.3,0.3-0.6,0.4-0.8c0.2-0.4,0.3-0.7,0.5-1.1c1.6-3.3,3.1-6.7,4.5-10.1c0.2-0.4,0.3-0.8,0.5-1.2c1.3-3.2,2.6-6.5,3.9-9.8    c0.1-0.4,0.3-0.7,0.4-1.1c0.1-0.2,0.1-0.4,0.2-0.6c1.2-3.2,2.3-6.5,3.4-9.8c0.2-0.7,0.5-1.5,0.7-2.2c0.9-2.9,1.8-5.8,2.7-8.7    c0.1-0.4,0.3-0.8,0.4-1.2c0-0.2,0.1-0.3,0.1-0.5c1-3.3,1.9-6.6,2.7-10c0.2-0.8,0.4-1.6,0.6-2.4c0.7-2.9,1.5-5.9,2.1-8.8    c0.1-0.4,0.2-0.8,0.3-1.2c0-0.1,0-0.2,0.1-0.3c1.7-7.6,3.2-15.3,4.6-22.9c0-0.1,0-0.2,0.1-0.3c0-0.1,0-0.1,0-0.2    c1.4-8,2.5-15.9,3.5-23.8c0,0,0-0.1,0-0.1c0-0.1,0-0.1,0-0.2c1-8.3,1.9-16.4,2.5-24.5c0-0.2,0-0.3,0-0.5c0-0.4,0.1-0.8,0.1-1.1    c0.3-3.9,0.6-7.7,0.8-11.6c0-0.5,0.1-0.9,0.1-1.4c0.2-3.9,0.4-7.7,0.6-11.5c0-0.1,0-0.3,0-0.4c0,0,0-0.1,0-0.1    c0.2-4.3,0.3-8.5,0.4-12.6C1456.3,1811.7,1456.3,1811.4,1456.3,1811z"/><path fill="#bfbfbf" d="M1359.1,1638.7c-2.8-4.1-5.4-8.1-7.9-12.2c-0.6-1-1.2-2-1.8-3c-1.7-2.8-3.3-5.5-4.8-8.2    c-1-1.7-1.9-3.4-2.9-5.1c-1.5-2.8-3-5.6-4.4-8.3c-0.3-0.6-0.7-1.3-1-1.9c-1.8-3.5-3.4-7-5-10.4c-0.3-0.6-0.6-1.3-0.9-1.9    c-1.5-3.4-3-6.7-4.3-9.9c-0.2-0.6-0.5-1.1-0.7-1.7c-1.2-3.1-2.4-6.1-3.5-9c-0.1-0.4-0.3-0.7-0.4-1.1c-1.1-3.1-2.2-6.1-3.1-9.1    c-0.3-0.9-0.5-1.7-0.8-2.6c-0.7-2.1-1.3-4.2-1.9-6.3c-0.3-1-0.6-1.9-0.8-2.9c-0.5-1.9-1-3.8-1.5-5.6c-0.2-0.9-0.5-1.8-0.7-2.7    c-0.4-1.8-0.8-3.5-1.2-5.1c-0.2-0.8-0.4-1.7-0.6-2.5c-0.3-1.4-0.6-2.7-0.8-4c-0.2-1-0.4-2-0.6-2.9c-0.2-0.8-0.3-1.5-0.4-2.3    c-0.2-1.3-0.5-2.7-0.7-3.8c-0.2-1.5-0.4-2.9-0.6-4.2c0-0.3-0.1-0.5-0.1-0.7c-0.2-1.2-0.3-2.4-0.4-3.3c0-0.1,0-0.2,0-0.4    c-0.1-0.8-0.1-1.5-0.2-2c0-0.2,0-0.4,0-0.5c0-0.4-0.1-0.9-0.1-1l-44.2,25.7c0,0.2,0,0.5,0.1,1c0,0.2,0,0.3,0,0.5    c0,0.2,0,0.4,0.1,0.7c0,0.4,0.1,0.8,0.1,1.3c0,0.1,0,0.2,0,0.4c0.1,0.8,0.2,1.6,0.3,2.5c0,0.2,0.1,0.5,0.1,0.8    c0,0.2,0.1,0.5,0.1,0.7c0.2,1.2,0.3,2.5,0.6,3.9c0,0.1,0,0.2,0.1,0.3c0.2,1.2,0.4,2.5,0.7,3.8c0.1,0.7,0.2,1.3,0.4,2.1    c0,0.1,0,0.1,0,0.2c0.2,0.9,0.4,1.9,0.6,2.9c0.2,1.2,0.5,2.4,0.8,3.7c0,0.1,0,0.2,0.1,0.3c0.2,0.8,0.4,1.6,0.6,2.5    c0.3,1.5,0.7,2.9,1,4.5c0.1,0.2,0.1,0.5,0.2,0.7c0.2,0.9,0.5,1.8,0.7,2.7c0.3,1.3,0.7,2.6,1.1,4c0.1,0.5,0.3,1,0.4,1.5    c0.3,0.9,0.6,1.9,0.8,2.9c0.3,1,0.6,2,0.9,3c0.3,1,0.7,2.2,1,3.2c0.3,0.9,0.5,1.7,0.8,2.6c0.2,0.5,0.3,1,0.5,1.5    c0.8,2.3,1.6,4.7,2.5,7.1c0.1,0.2,0.1,0.3,0.2,0.5c0.1,0.4,0.3,0.7,0.4,1.1c0.6,1.7,1.3,3.5,2,5.3c0.5,1.2,1,2.5,1.5,3.7    c0.2,0.6,0.5,1.1,0.7,1.7c0.2,0.4,0.3,0.8,0.5,1.2c0.9,2.1,1.8,4.3,2.8,6.5c0.3,0.7,0.7,1.5,1,2.2c0.3,0.6,0.6,1.3,0.9,1.9    c0.4,0.9,0.8,1.7,1.2,2.6c1.1,2.3,2.2,4.6,3.4,6.9c0.2,0.3,0.3,0.6,0.5,0.9c0.3,0.6,0.7,1.3,1,1.9c0.9,1.7,1.7,3.4,2.6,5.1    c0.6,1.1,1.2,2.2,1.8,3.2c0.9,1.7,1.9,3.4,2.9,5.1c0.6,1,1.1,2,1.7,3c1,1.7,2.1,3.5,3.2,5.2c0.6,1,1.2,2,1.8,3    c2.3,3.6,4.6,7.3,7.1,11c0.3,0.4,0.5,0.8,0.8,1.1c0.7,1,1.3,1.9,2,2.8l44.2-25.7C1360.4,1640.6,1359.8,1639.7,1359.1,1638.7z"/><polygon fill="#b7b7b7" points="1101.2 1394.7 1145.4 1369 1306.9 1504.1 1262.7 1529.7"/><path fill="#969696" d="M1450.9,1710.4C1450.9,1710.4,1450.9,1710.4,1450.9,1710.4c0,0-0.1,0-0.1-0.1c0,0,0,0-0.1,0    c0,0-0.1,0-0.1-0.1c-0.1-0.1-0.2-0.1-0.3-0.2c0,0,0,0-0.1,0c-0.2-0.1-0.4-0.3-0.7-0.5c0,0-0.1-0.1-0.1-0.1    c-0.3-0.2-0.6-0.4-0.9-0.7c-0.1-0.1-0.2-0.2-0.3-0.3c-0.2-0.2-0.5-0.4-0.8-0.6c-0.1-0.1-0.2-0.2-0.4-0.3c-0.4-0.3-0.9-0.6-1.4-1    c-0.1-0.1-0.3-0.2-0.4-0.3c-0.4-0.3-0.9-0.7-1.4-1.1c-0.2-0.1-0.3-0.3-0.5-0.4c-0.6-0.5-1.3-1-2-1.5c-0.2-0.1-0.4-0.3-0.6-0.4    c-0.6-0.5-1.3-1-2-1.5c-0.4-0.3-0.9-0.7-1.3-1c-0.7-0.5-1.4-1.1-2.1-1.6c-0.2-0.2-0.5-0.3-0.7-0.5c-1.1-0.9-2.3-1.8-3.6-2.8    c-0.2-0.2-0.5-0.4-0.7-0.6c-1.3-1-2.6-2-4-3.1c-0.1-0.1-0.2-0.1-0.2-0.2c-1.6-1.2-3.3-2.6-5.2-4c-0.1-0.1-0.2-0.2-0.3-0.3    c-1.7-1.3-3.4-2.6-5.3-4.1c-0.3-0.2-0.6-0.5-1-0.7c-1.9-1.5-3.9-3-6.1-4.7c-0.1-0.1-0.2-0.1-0.3-0.2c-9.4-7.2-20.9-16.1-34.9-26.9    c-0.5-0.4-0.9-0.7-1.4-1.1c-3.4-2.6-6.9-5.3-10.6-8.2l0,0l0,0l-44.2,25.7c3.2,2.5,6.3,4.9,9.3,7.2c1.4,1.1,2.8,2.1,4.1,3.2    c2.7,2.1,5.3,4.1,7.8,6c0.2,0.1,0.4,0.3,0.6,0.4c3.1,2.4,6,4.6,8.8,6.8c0.4,0.3,0.9,0.7,1.3,1c5.2,4,10,7.7,14.3,11    c0.7,0.6,1.4,1.1,2.1,1.7c1.7,1.3,3.4,2.6,5,3.8c0.3,0.2,0.6,0.5,1,0.7c1.5,1.2,3,2.3,4.4,3.4c0.6,0.5,1.3,1,1.9,1.4    c1.6,1.2,3.1,2.4,4.6,3.5c0.1,0.1,0.2,0.1,0.2,0.2c1.4,1.1,2.7,2.1,4,3.1c0.2,0.2,0.5,0.4,0.7,0.6c1.3,1,2.5,1.9,3.6,2.8    c0.2,0.2,0.5,0.4,0.7,0.5c0.7,0.6,1.5,1.1,2.1,1.6c0.5,0.3,0.9,0.7,1.3,1c0.7,0.5,1.4,1,2,1.5c0.2,0.2,0.4,0.3,0.6,0.5    c0.6,0.5,1.2,0.9,1.8,1.4c0.2,0.2,0.5,0.3,0.7,0.5c0.5,0.4,0.9,0.7,1.3,1c0.1,0.1,0.3,0.2,0.4,0.3c0.5,0.4,1,0.7,1.4,1    c0.1,0.1,0.2,0.2,0.4,0.3c0.3,0.2,0.5,0.4,0.8,0.6c0.1,0.1,0.2,0.1,0.2,0.2c0,0,0.1,0,0.1,0.1c0.4,0.3,0.7,0.5,1,0.7    c0,0,0,0,0.1,0.1c0.3,0.2,0.5,0.4,0.7,0.5c0,0,0,0,0,0c0,0,0,0,0,0c0.1,0.1,0.2,0.1,0.3,0.2c0,0,0,0,0,0c0,0,0,0,0.1,0    c0,0,0,0,0.1,0c0,0,0,0,0.1,0c0,0,0.1,0,0.1,0c0,0,0,0,0,0h0c0,0,0,0,0.1,0c0,0,0,0,0,0c0,0,0,0,0,0c0,0,0,0,0,0c0,0,0,0,0,0    c0,0,0,0,0,0l44.2-25.7C1451.1,1710.5,1451,1710.5,1450.9,1710.4z"/><defs><path id="s" d="M1406.9,1736.2c1.5,0.4,67.2,500.9-307.7,356.9c-374.5-288.7-309.5-690.6-306.1-711.8       c92.3,36.3,92.9,36.1,93.6,35.9c48-14.8,52.6-71.1,52.8-74.1l161.7,51.5l161.5,135c0.2,3.2,4.5,64.6,52.2,134.7       c0.7,1,1.3,1.9,2,2.8C1405.6,1735.8,1406.3,1736,1406.9,1736.2z M1363.9,1943.7c14-48,17.7-100.6,17.8-142.3       c0-15.1-0.4-28.7-1-40.1c-1.4-0.8-2.8-1.5-4.2-2.3c-30.2-17.4-58.1-44.1-80.6-77.1c-37.1-54.5-52.9-106.3-59.5-137.4       l-135.2-113l-135.3-43.2c-6.8,23.4-22.8,56.8-60.1,68.3c-22.7,6.9-50.6,1.4-80.8-16.1c-1.4-0.8-2.8-1.7-4.2-2.5       c-2.5,39.8-3,112.2,15.2,198.7c35.5,169.6,124.2,310.9,263.5,420.1C1238.2,2108.4,1327.2,2070.4,1363.9,1943.7" enable-background="new"/></defs><linearGradient id="r" x1="786.777" x2="1412.235" y1="1731.141" y2="1731.141" gradientUnits="userSpaceOnUse"><stop offset="0" stop-color="#dbdbdb"/><stop offset="1" stop-color="#f7f7f7"/></linearGradient><use fill="url(#r)" overflow="visible" xlink:href="#s"/><clipPath id="t"><use overflow="visible" xlink:href="#s"/></clipPath><linearGradient id="u" x1="819.391" x2="1381.622" y1="1733.658" y2="1733.658" gradientUnits="userSpaceOnUse"><stop offset="0" stop-color="#82fb7c"/><stop offset="1" stop-color="#0ba2b3"/></linearGradient><path fill="url(#u)" d="M1101.1,1431.4l-1.8,625.4c138.9,51.6,227.9,13.6,264.5-113.1c14-48,17.7-100.6,17.8-142.3     c-0.1,41.6-3.8,94.2-17.8,142.3c-36.7,126.7-125.7,164.7-264.5,113.1c-139.3-109.2-228-250.5-263.5-420.1     c-18.1-86.5-17.7-158.9-15.2-198.7c1.4,0.8,2.8,1.7,4.2,2.5c30.2,17.5,58.1,23,80.8,16.1c37.3-11.5,53.3-45,60.1-68.3     L1101.1,1431.4z"/><linearGradient id="v" x1="1099.345" x2="1381.624" y1="1755.258" y2="1755.258" gradientUnits="userSpaceOnUse"><stop offset="0" stop-color="#239172"/><stop offset="1" stop-color="#0ba2b3"/></linearGradient><path fill="url(#v)" d="M1101.1,1431.4l135.2,113c6.6,31.1,22.4,82.9,59.5,137.4c22.5,33,50.4,59.7,80.6,77.1     c1.4,0.8,2.8,1.6,4.2,2.3c0.6,11.5,1,25.1,1,40.1c-0.1,41.6-3.8,94.2-17.8,142.3c-36.7,126.7-125.7,164.7-264.5,113.1     L1101.1,1431.4z"/><path fill="none" stroke="#fff" stroke-miterlimit="10" stroke-width="8.95" d="M1156.6,1872l-114.1-61.1c-15.8-8.5-28.7-28.2-28.7-44v-79.2c0-15.8,12.8-21.8,28.7-13.3l114.1,61.1     c15.8,8.5,28.7,28.2,28.7,44v79.2C1185.2,1874.5,1172.4,1880.4,1156.6,1872z"/><path fill="none" stroke="#fff" stroke-miterlimit="10" stroke-width="8.95" d="M1099.8,1603.5L1099.8,1603.5c-30.9-16.5-55.9-2.7-55.9,30.8v40.8l111.7,59.8v-40.8     C1155.7,1660.6,1130.7,1620,1099.8,1603.5z"/><path fill="none" stroke="#fff" stroke-miterlimit="10" stroke-width="8.95" d="M1121.3,1768.6c0-14.9-9.8-32.2-21.8-38.6c-12-6.4-21.8,0.4-21.8,15.3c0,10.9,5.2,23,12.7,31.3v24.1     c0,6.2,4.1,13.5,9.1,16.1c5,2.7,9.1-0.2,9.1-6.4v-24.1C1116.1,1786,1121.3,1779.5,1121.3,1768.6z"/><g><defs><path id="w" d="M793.1,1381.3l44.2-25.7c92.3,36.3,92.9,36.1,93.6,35.9l-44.2,25.7      C886.1,1417.4,885.4,1417.6,793.1,1381.3z" enable-background="new"/></defs><clipPath id="x"><use overflow="visible" xlink:href="#w"/></clipPath><g clip-path="url(#x)"><path fill="#9c9c9c" d="M793.1,1381.3l44.2-25.7c62.8,24.7,83.2,32.5,90,34.9l-44.2,25.7C876.3,1413.8,855.9,1406,793.1,1381.3"/><path fill="#999" d="M883.1,1416.2l44.2-25.7c1.1,0.4,1.8,0.6,2.3,0.8l-44.2,25.7C884.9,1416.8,884.2,1416.6,883.1,1416.2"/><path fill="#969696" d="M885.4,1417l44.2-25.7c0.2,0.1,0.4,0.1,0.6,0.2l-44.2,25.7C885.8,1417.1,885.7,1417.1,885.4,1417"/><path fill="#949494" d="M886,1417.2l44.2-25.7c0.1,0,0.2,0,0.3,0.1l-44.2,25.7C886.2,1417.2,886.1,1417.2,886,1417.2"/><path fill="#919191" d="M886.3,1417.2l44.2-25.7c0.1,0,0.1,0,0.1,0l-44.2,25.7C886.4,1417.2,886.3,1417.2,886.3,1417.2"/><path fill="#8f8f8f" d="M886.4,1417.2l44.2-25.7c0,0,0.1,0,0.1,0L886.4,1417.2C886.5,1417.3,886.4,1417.3,886.4,1417.2"/><path fill="#8c8c8c" d="M886.5,1417.3l44.2-25.7c0,0,0,0,0.1,0L886.5,1417.3C886.5,1417.3,886.5,1417.3,886.5,1417.3"/><path fill="#8a8a8a" d="M886.6,1417.3l44.2-25.7c0,0,0,0,0.1,0L886.6,1417.3C886.6,1417.3,886.6,1417.3,886.6,1417.3"/><path fill="#878787" d="M886.6,1417.3l44.2-25.7c0,0,0.1,0,0.1,0L886.6,1417.3C886.7,1417.2,886.6,1417.3,886.6,1417.3"/><path fill="#858585" d="M886.7,1417.2l44.2-25.7c0,0,0,0,0.1,0L886.7,1417.2C886.7,1417.2,886.7,1417.2,886.7,1417.2"/></g></g><g><polygon fill="#a0a0a0" points="939.5 1343.2 983.8 1317.5 1145.4 1369 1101.2 1394.7"/></g></g></svg>